<?xml version="1.0" standalone="no"?>
<!DOCTYPE svg PUBLIC "-//W3C//DTD SVG 1.1//EN" "http://www.w3.org/Graphics/SVG/1.1/DTD/svg11.dtd" >
<svg xmlns="http://www.w3.org/2000/svg" xmlns:xlink="http://www.w3.org/1999/xlink" version="1.1">
<metadata></metadata>
<defs>
<font id="neskid_comica_bd_id12005576Rg" horiz-adv-x="1179" >
<font-face units-per-em="2048" ascent="1638" descent="-410" />
<missing-glyph horiz-adv-x="508" />
<glyph horiz-adv-x="0" />
<glyph unicode="&#xd;" horiz-adv-x="508" />
<glyph unicode=" "  horiz-adv-x="508" />
<glyph unicode="&#x09;" horiz-adv-x="508" />
<glyph unicode="&#xa0;" horiz-adv-x="508" />
<glyph unicode="!" horiz-adv-x="608" d="M147 1196l90 -762h238v762h-328zM221 131h221v148l-221 57v-205z" />
<glyph unicode="&#x22;" horiz-adv-x="718" d="M172 1081l41 -8h82q0 14 164 189h-197q0 -13 -90 -181zM410 1081h32l58 -8q94 111 164 205h-156q-98 -176 -98 -197z" />
<glyph unicode="#" horiz-adv-x="1056" d="M165 528l180 25l8 -16v-107q0 -16 -16 -16h-164v-140h156l16 -8q-65 -178 -65 -196h8q213 0 213 24v164q2 16 16 16h74q16 -2 16 -16v-57q0 -41 -8 -123h25q57 0 180 8v172l8 16q191 -32 213 -32v73l-8 99h-197q-16 0 -16 16v115q2 16 16 16h123q17 74 17 139h-9 q-108 -24 -131 -24q0 8 -8 8q25 78 25 147q-103 0 -230 -16v-131q0 -16 -16 -16h-74q-16 0 -16 16v131h-148v-131q0 -20 -163 -33q-9 -16 -25 -123zM501 430v115q2 16 16 16h74q16 -2 16 -16v-115q0 -16 -16 -16h-74q-16 0 -16 16z" />
<glyph unicode="$" horiz-adv-x="884" d="M163 377q0 -60 229 -98v-156h82v139q0 19 58 25l8 -17v-131q2 -16 16 -16h74v180q229 125 229 254v16q0 117 -213 238q0 33 140 221q-136 29 -156 49v123h-90v-131q0 -16 -17 -16h-49v147h-82v-172q-213 -112 -213 -213v-24q0 -166 148 -295q-2 -15 -164 -90v-33z" />
<glyph unicode="%" horiz-adv-x="878" d="M172 664q18 -123 106 -123h33q99 65 99 139q0 123 -123 123q-86 0 -115 -139zM180 123h148l450 680q-237 -31 -237 -74q-242 -397 -361 -606zM565 295q0 -131 131 -131q54 0 107 139q-17 123 -90 123h-25q-96 0 -123 -131z" />
<glyph unicode="&#x26;" horiz-adv-x="1200" d="M163 410q0 -193 221 -271q74 -16 107 -16q108 0 278 106q25 -36 25 -49h246q-99 160 -99 189q148 157 148 188q-80 121 -99 164h-8q-24 -103 -106 -197q-58 117 -72 156l14 57q164 242 -39 451l-149 33q-207 0 -246 -254v-58q0 -55 49 -131q-270 -116 -270 -327v-41z M409 446q35 127 116 123l37 -2q93 -45 86 -112l-2 -37q-28 -113 -131 -109q-90 2 -106 137zM552 944q21 105 82 105h29q69 -35 69 -91v-30q-16 -94 -92 -94q-69 0 -88 110z" />
<glyph unicode="'" horiz-adv-x="401" d="M102 1090q45 -13 102 -13q127 383 127 393h-6l-217 -30q-6 -64 -6 -97v-253z" />
<glyph unicode="(" horiz-adv-x="665" d="M55 651q0 -428 319 -884q27 0 156 73q-156 287 -156 631v107q0 276 173 516q0 8 -312 188h-8q-172 -205 -172 -582v-49z" />
<glyph unicode=")" horiz-adv-x="507" d="M184 1087q172 -237 172 -516v-114q0 -334 -156 -623q4 0 131 -74h9q209 197 319 705q17 88 17 188v9q0 415 -173 614h-8q-293 -174 -311 -180v-9z" />
<glyph unicode="*" horiz-adv-x="907" d="M124 1399l57 -213l41 8h131v-8q-59 -113 -90 -139q111 -162 115 -181q16 0 90 246h8q21 0 90 -213l189 49q-148 226 -148 246h9q151 -57 221 -74v8q0 17 -58 213l-57 -8h-115v8l164 222h-205q-14 -56 -82 -148h-8q-49 191 -49 213h-8q-154 -135 -156 -147q11 0 90 -140 l-16 -8q-154 58 -213 66z" />
<glyph unicode="+" horiz-adv-x="860" d="M100 588q33 -146 33 -180h188q17 -2 17 -17v-24q0 -58 8 -181h164q8 123 8 181v24q2 17 16 17h197q0 34 33 180h-222q-16 0 -16 16v205h-197v-205q0 -16 -16 -16h-213z" />
<glyph unicode="," horiz-adv-x="466" d="M122 -272q94 -25 123 -25q156 215 156 418q-9 14 -9 33v65q0 17 -16 17q-82 -41 -246 -91v-8q25 -98 25 -180v-8q0 -86 -33 -221z" />
<glyph unicode="-" horiz-adv-x="675" d="M114 504l33 -230h393l33 230h-459z" />
<glyph unicode="." horiz-adv-x="448" d="M57 166q0 -117 156 -139h32q156 26 156 147q0 102 -156 131h-41q-147 -26 -147 -123v-16z" />
<glyph unicode="/" horiz-adv-x="776" d="M114 154q84 -25 145 -25l482 1319h-9q-98 41 -198 65q-115 -430 -420 -1359zM773 1378l3 4q-3 -2 -3 -4z" />
<glyph unicode="0" horiz-adv-x="1396" d="M16 590q0 -409 426 -565q90 -33 213 -33h66q436 0 598 410q32 90 32 213v24q0 445 -442 672q-94 33 -221 41q-492 0 -664 -557q-8 -70 -8 -115v-90zM483 723q37 228 151 228h54q131 -76 131 -195v-65q-31 -205 -174 -205q-127 0 -162 237z" />
<glyph unicode="1" horiz-adv-x="980" d="M18 1057q0 -31 98 -320q320 91 369 91v-9q-148 -659 -148 -811v-8l82 8h426l115 1311q-205 66 -237 66l-705 -320v-8z" />
<glyph unicode="2" horiz-adv-x="1275" d="M9 1153l164 -409h8q238 164 393 164h33q107 -9 107 -107q0 -82 -377 -328q-156 -108 -156 -229q-8 -166 -8 -229q-8 0 -8 -8q219 -9 344 -9h393q102 0 254 -8q6 8 74 8l-9 58v319h-8l-532 -41v33q442 326 442 467q19 0 25 147q0 236 -295 328q-133 41 -254 41h-41 q-283 0 -549 -188v-9z" />
<glyph unicode="3" horiz-adv-x="1116" d="M25 1005q350 90 483 90h58q80 0 114 -57v-25q0 -127 -442 -287q-16 -57 -25 -155q152 24 172 24q95 0 140 -65v-49q0 -80 -451 -140q0 -43 -41 -295q189 -41 328 -41h106q412 0 467 246v49q0 150 -180 377q295 129 295 238q25 8 33 180v139q0 72 -33 131q-446 9 -713 9 h-286l-9 -33q-8 -236 -8 -303z" />
<glyph unicode="4" horiz-adv-x="1267" d="M-25 250h8q649 91 672 99q0 -8 8 -8q-41 -230 -41 -328h221q70 0 222 -8q8 256 8 327q16 9 24 9q97 -9 140 -25q8 16 8 25v213q-127 12 -172 24l114 811l-335 -16q-78 -697 -99 -697h-41q-69 0 -221 -8l-8 17l123 434l-426 131v-8zM203 1090q0 6 2 10q-2 -4 -2 -10z" />
<glyph unicode="5" horiz-adv-x="1185" d="M-6 458h8q248 65 379 65q238 -20 238 -139q8 0 8 -33v-24q-31 -148 -271 -148h-77q-70 0 -205 41q43 -205 55 -205q121 -16 236 -16h47q327 0 608 164q127 108 127 246v57q0 205 -324 237h-55q-94 0 -293 -24l-8 16q55 160 72 180q434 17 514 17l102 377h-8 q-580 -49 -948 -66z" />
<glyph unicode="6" horiz-adv-x="1163" d="M21 505q0 -337 344 -475q76 -24 172 -24h8q420 0 566 295l8 82q0 295 -336 417h-66q-104 0 -245 -90h-25v17q0 145 164 311l311 188l-287 123q-170 -55 -385 -270q-229 -254 -229 -574zM488 372v66q35 82 156 82h8q139 -25 139 -115q0 -84 -156 -115q-147 41 -147 82z " />
<glyph unicode="7" horiz-adv-x="1175" d="M0 1349q8 -16 8 -25q8 -372 8 -426l443 41q-287 -641 -287 -827l516 -115q29 361 451 1303q-49 45 -49 65q-349 0 -1090 -16z" />
<glyph unicode="8" horiz-adv-x="1122" d="M2 375q0 -287 426 -369h172q344 0 467 279q16 69 16 123q0 198 -254 376v9q58 104 58 245q0 281 -254 418q-33 17 -90 17q-308 0 -361 -402v-74q0 -98 58 -221q-238 -151 -238 -360v-41zM362 522q0 105 148 140q147 -35 147 -148v-16q-34 -140 -139 -140h-8 q-129 0 -148 164zM403 1063v49q11 115 99 115q82 -19 82 -148q0 -86 -66 -131h-24q-78 0 -91 115z" />
<glyph unicode="9" horiz-adv-x="1208" d="M-7 216q20 -6 270 -213q348 70 549 238q344 307 344 622v33q0 389 -401 516q-103 33 -221 33h-33q-332 0 -442 -238q-25 -104 -25 -155q0 -250 229 -418q82 -33 156 -33q59 0 213 41v-8q0 -133 -262 -311q-262 -74 -377 -99v-8zM321 978v33q0 80 131 98q180 -35 180 -131 v-25q0 -75 -131 -106q-180 31 -180 131z" />
<glyph unicode=":" horiz-adv-x="534" d="M81 276q0 -114 156 -139h32q156 27 156 148q0 102 -147 131h-50q-147 -27 -147 -123v-17zM81 793q18 -140 180 -140q164 33 164 148q0 114 -180 139q-137 0 -164 -131v-16z" />
<glyph unicode=";" horiz-adv-x="479" d="M86 813q27 -123 180 -123q156 35 156 123v41q0 102 -172 123q-164 -27 -164 -123v-41zM143 -31q76 -24 115 -24q147 217 147 401v41l-8 98q-108 -57 -254 -98v-16q25 -111 25 -181q-25 -172 -25 -221z" />
<glyph unicode="&#x3c;" horiz-adv-x="958" d="M137 215q16 -25 696 -395v293q0 16 -352 96v14q352 256 352 264l-43 484q-487 -420 -653 -580v-176z" />
<glyph unicode="=" horiz-adv-x="1290" d="M280 205h786v180h-786v-180zM290 686h787v180h-787v-180z" />
<glyph unicode="&#x3e;" horiz-adv-x="1042" d="M235 272l45 -493h6q465 403 668 592v172q-8 20 -719 413v-315l367 -90v-8z" />
<glyph unicode="?" horiz-adv-x="1224" d="M194 717q367 182 389 182h12q121 -25 121 -121v-20q0 -64 -262 -348q-92 -119 -92 -195q0 -45 27 -129q81 39 274 68q-20 32 -20 73q0 58 323 377q113 139 113 275v6q0 415 -563 415q-183 0 -295 -53zM307 -176v-6q41 -189 241 -189q156 0 224 150l6 45q-37 188 -215 188 h-33q-223 -26 -223 -188z" />
<glyph unicode="@" horiz-adv-x="1492" d="M100 686q0 -465 483 -612q72 -13 133 -13h68l39 7v141h-84q-322 0 -442 336q-17 71 -17 123v67q0 236 291 406q98 33 158 33h61q205 0 348 -203q62 -105 62 -236q-19 -274 -123 -274h-6q-78 0 -78 248q0 274 -193 342q-26 10 -94 16q-45 -4 -45 -12q-78 -185 -90 -217h6 q10 4 17 4q135 -23 135 -129q-6 0 -6 -4q-23 10 -62 10q-149 0 -213 -168v-62q0 -163 201 -192q63 0 141 68h6q72 -68 197 -68q250 0 342 215q33 113 33 201v73q0 361 -404 523q-114 28 -202 28q-459 0 -633 -434q-29 -112 -29 -217zM577 508q19 92 76 92h27q65 -31 65 -80 v-26q-16 -82 -88 -82q-63 0 -80 96z" />
<glyph unicode="A" horiz-adv-x="1308" d="M19 63l8 -2h14q132 0 344 -34q54 -21 88 -27q-39 281 -41 416q70 19 190 19q46 0 99 -3q17 -76 64 -504q497 148 510 146q-185 684 -525 1378q-12 2 -82 123q-358 -111 -504 -111q-29 0 -49 4q-136 -622 -136 -1079q0 -175 20 -326zM367 922v16q0 103 24 244l9 -2 q186 -232 278 -480l-2 -16q-40 3 -76 3q-134 0 -209 -36q-24 6 -24 234v37z" />
<glyph unicode="B" horiz-adv-x="1228" d="M-52 1495q159 -320 159 -1239q0 -123 -3 -256h82q22 -1 43 -1q501 0 839 291q111 148 113 285v41v16q0 247 -180 340q-25 0 -25 17q92 88 96 260v12q0 225 -221 305q-86 25 -172 27l-74 2h-24q-222 0 -633 -100zM425 1263q95 29 208 29h15q82 -2 113 -62v-41 q-4 -108 -299 -180q-25 72 -37 254zM464 763q67 35 181 35h24h41q123 -16 121 -100v-33q-4 -139 -326 -231q-14 37 -41 329z" />
<glyph unicode="C" horiz-adv-x="1009" d="M7 697q54 -432 424 -641q123 -55 255 -55q37 0 75 4l25 4q116 13 174 45l-15 56q-8 65 -8 132q0 137 33 283h-8l-326 -106q-21 -2 -40 -2q-133 0 -212 112q-31 48 -51 134q-4 34 -4 66q0 237 215 380q31 21 88 29q14 1 29 1q56 0 120 -18v9q-1 10 -1 21q0 112 128 349 q-106 18 -204 17q-64 0 -125 -7l-17 -2q-481 -59 -555 -604q-7 -40 -7 -91.5t7 -115.5z" />
<glyph unicode="D" horiz-adv-x="1308" d="M-53 1554q156 -1304 156 -1540l16 -8q283 -16 328 -16q530 0 770 589q33 113 33 205v66q0 475 -574 680q-197 57 -426 57q-303 -8 -303 -33zM377 1159q21 16 82 25q229 0 319 -353q9 -28 9 -90q0 -180 -148 -254q-57 -16 -98 -16h-33q-74 0 -74 82q0 49 -57 606z" />
<glyph unicode="E" horiz-adv-x="1052" d="M-40 1220q94 -360 154 -706q44 -252 44 -431q0 -46 -3 -86q649 21 862 58q-25 143 -92 432q-158 -51 -443 -125l-55 174l14 10l33 6q100 17 238 74q-13 21 -86 301q-64 -37 -226 -90l-12 17l-4 30q-23 76 -33 137q12 11 31 13l106 18q78 15 301 35l-8 41q-20 119 -47 324 l-88 -15q-313 -53 -686 -217z" />
<glyph unicode="F" horiz-adv-x="1103" d="M15 1483q-15 -261 -15 -493q0 -455 56 -803l20 -129q52 -37 406 -52l-35 228q-18 118 -43 323l14 13h113q206 0 244 6q20 60 19.5 151t-19.5 213q-143 -8 -301 -8h-64l-2 8q-4 80 -5 130q0 84 13 87q121 7 245 7q202 0 413 -19l-2 8q-8 54 -10 430q-39 9 -111 8 q-257 1 -936 -108z" />
<glyph unicode="G" horiz-adv-x="1361" d="M-12 731q55 -548 481 -700q68 -27 226 -29q424 43 598 537q26 117 26 245q0 63 -6 128v8q-520 -68 -618 -78l2 -33q4 -42 4 -83q0 -57 -8 -113q41 20 110 34q21 2 37 2q62 0 66 -32q-64 -189 -228 -203q-13 -1 -25 -1q-163 0 -268 218q-20 43 -24 88q-4 44 -4 83 q0 239 164 296h16q8 1 18 1q49 0 142 -26l149 410h-8q-106 34 -210 34q-29 0 -58 -3l-17 -2q-467 -45 -565 -598q-1 -75 -1 -120.5t1 -62.5zM1115 334q2 2 4 6z" />
<glyph unicode="H" d="M-24 -6l360 -17v9q39 467 66 467h74q106 0 147 -17q-8 -20 -49 -442l16 8q226 8 353 8l73 -8q107 832 140 1311h-9q-127 0 -401 -8q-57 -433 -57 -484h-8q-222 10 -222 41l74 467q-262 66 -360 66q-197 -877 -197 -1401z" />
<glyph unicode="I" horiz-adv-x="575" d="M6 1274q100 -926 180 -1231q25 -55 25 -61l330 69q-51 675 -51 1049q0 144 8 243z" />
<glyph unicode="J" horiz-adv-x="1052" d="M-59 532q57 -262 238 -426q159 -106 303 -106h49q284 0 426 688q49 303 49 606v303q-274 -33 -541 -33l-262 9v-295q0 -13 25 -25h352q33 0 41 -246v-131q-21 -393 -180 -393q-133 0 -197 270h-8q-72 -24 -295 -221z" />
<glyph unicode="K" horiz-adv-x="1333" d="M13 1309q6 -260 12 -385l29 -484q14 -278 57 -440l334 45l-6 98q-6 125 -10 342l8 2q356 -391 375 -389q469 174 489 174q-22 29 -647 441l-10 16q567 582 573 598h-5q-53 0 -464 31q-92 -113 -252 -342l-16 -10h-8q14 206 30 329z" />
<glyph unicode="L" horiz-adv-x="1011" d="M12 138q0 -131 25 -131q49 0 426 -16q260 0 475 65q-25 215 -25 345v172q-338 -140 -500 -140q0 8 -8 8q123 689 205 918l-492 57q-106 -733 -106 -1204v-74z" />
<glyph unicode="M" horiz-adv-x="1589" d="M-2 1074q33 -875 82 -1041q336 33 336 49q-33 437 -33 517q8 14 8 32h17q139 -411 188 -630h8q187 16 352 40q17 416 17 451l16 8h8q179 -504 197 -508q188 68 360 181q-65 430 -450 1064q-307 -24 -426 -40q8 -152 8 -222v-319h-16q0 53 -238 647q-434 -207 -434 -221 v-8zM138 1071q0 -2 2 -6q-2 2 -2 6zM326 1163l4 -8q0 2 -1 3t-1 3z" />
<glyph unicode="N" horiz-adv-x="1163" d="M-29 1075q90 -670 188 -1041q37 0 336 33q-82 442 -82 549v8h17q211 -473 246 -631l409 41q16 306 16 664v229q-6 303 -40 303q-66 0 -418 -32v-9q49 -348 65 -540h-16q-137 332 -303 647h-17q-376 -193 -401 -221z" />
<glyph unicode="O" horiz-adv-x="1419" d="M1 725q0 -365 360 -633q154 -94 336 -94h41q357 0 557 371q41 114 41 211v34q0 385 -344 627q-155 80 -286 80h-74q-346 0 -574 -342q-57 -139 -57 -254zM419 676v51q24 209 180 209q166 0 287 -260l8 -76q0 -158 -229 -201h-17q-196 0 -229 277z" />
<glyph unicode="P" horiz-adv-x="1173" d="M-12 1326q66 -680 66 -975v-164q0 -43 -9 -139q287 -25 443 -57q-41 360 -41 516q16 8 24 8q35 0 66 -8q432 0 573 336q33 129 33 204q0 334 -450 394q0 8 -91 8h-82q-284 0 -532 -123zM414 1113q14 8 98 16q213 -20 213 -139v-8q0 -160 -237 -197h-33q-16 0 -16 25 q0 74 -25 303z" />
<glyph unicode="Q" horiz-adv-x="1501" d="M-6 818q0 -383 344 -704q188 -115 336 -115h33q82 0 213 33q219 -154 278 -164q148 98 262 278q-118 66 -254 99l-8 16q131 162 131 385v74q0 395 -336 680q-170 90 -294 90h-74q-344 0 -574 -385q-57 -170 -57 -287zM412 777v8q0 176 131 238l57 8q162 0 279 -287 q8 -43 8 -82q0 -184 -246 -221q-137 0 -205 172q-24 60 -24 164z" />
<glyph unicode="R" horiz-adv-x="1222" d="M12 1360q74 -770 74 -1040q-8 -174 -17 -246q310 -25 443 -57q-33 323 -41 516l16 8h115q24 0 139 -549q139 41 434 82v8q-4 123 -147 459l-58 90v16q197 152 197 426q0 269 -303 369q-117 33 -229 33h-99q-241 0 -524 -115zM438 1139q8 8 98 16q187 0 213 -131v-16 q-39 -197 -237 -197h-25q-22 0 -49 328z" />
<glyph unicode="S" horiz-adv-x="1050" d="M-6 1288q-6 -43 -6 -84q0 -265 256 -403q296 -88 296 -195q0 -5 -1 -10q13 -1 13 -45q0 -22 -3 -55l-2 -17q-14 -117 -164 -119l-41 7q-69 8 -235 96q10 -42 10 -86q0 -28 -4 -56l-27 -210q244 -82 367 -99l65 -8q36 -5 69 -5q235 0 359 239q25 73 31 118l12 82 q5 39 5 75q0 290 -320 429q-204 61 -204 195q0 11 1 22l2 16q12 83 150 83q16 0 35 -1q67 -8 245 -82l2 9q-25 115 -25 211q0 43 5 82q-254 57 -387 75q-72 9 -134 9q-335 0 -370 -273z" />
<glyph unicode="T" horiz-adv-x="1268" d="M9 969q188 49 328 49q57 -368 57 -942v-114q45 -9 66 -9q311 17 311 41q-17 770 -17 1041v16l9 16q106 -16 286 -16h164q-41 266 -57 492q-178 0 -1098 -107q-49 -127 -49 -360v-107z" />
<glyph unicode="U" horiz-adv-x="1384" d="M-5 1380q0 -953 262 -1213q199 -196 410 -196q405 0 614 467q33 120 33 180q0 461 -148 983q-184 -66 -434 -115q172 -454 172 -672v-81q0 -185 -147 -271q-74 -10 -90 -16q-295 0 -295 516q16 340 41 475q-176 -8 -262 -8h-156v-49z" />
<glyph unicode="V" horiz-adv-x="1081" d="M-14 1265q0 -350 336 -1269l98 8h66q129 0 311 -33q160 297 254 1434q8 0 8 8q-16 8 -442 74v-41q0 -172 8 -312q0 -319 -90 -688h-17q-155 682 -155 934q-262 -108 -377 -115z" />
<glyph unicode="W" horiz-adv-x="1865" d="M-35 1250q0 -344 336 -1270q129 17 147 17q174 -9 328 -41q74 157 139 377h17q32 -127 106 -304l98 9h58q119 0 319 -33q213 547 213 770q33 131 66 508l-434 65q0 -534 -115 -876h-16q-156 760 -156 942q-256 -115 -393 -115l-58 8v-188q0 -309 -106 -688h-17 q-155 692 -155 934h-8q-181 -82 -369 -115zM887 805v2q2 -4 2 -14q-2 4 -2 12z" />
<glyph unicode="X" horiz-adv-x="1509" d="M-2 1115q2 -10 516 -507l-377 -631q449 43 492 57q137 315 155 320q187 -269 222 -279l434 131q-107 117 -484 483l361 672l-434 -24q-191 -418 -213 -418q-297 354 -312 360z" />
<glyph unicode="Y" d="M-13 1361l395 -897q-30 -59 -291 -432l9 -2l448 -94q311 403 365 719q10 6 225 727q-393 -33 -432 -43q-127 -447 -133 -492l-17 2q-55 262 -151 625h-1q-21 0 -417 -113z" />
<glyph unicode="Z" horiz-adv-x="1339" d="M5 1216q25 -391 33 -442q174 -17 319 -17h25q98 0 287 25v-8q-123 -211 -484 -369q-74 -41 -74 -49q41 -324 41 -352h164q535 0 975 98v8q-59 371 -82 418q-12 0 -499 -123v8q0 6 507 385q-98 398 -98 434q-455 -41 -590 -41q-139 0 -524 33v-8z" />
<glyph unicode="[" horiz-adv-x="817" d="M169 -369h590q-8 82 -8 123v41h-230q-16 0 -16 17v1155q2 16 16 16h213q-8 111 -8 164h-500q-49 -1432 -57 -1516z" />
<glyph unicode="\" horiz-adv-x="800" d="M172 1425l524 -1327q76 25 148 41q-279 787 -451 1360h-8q-211 -67 -213 -74zM774 -12q0 -2 2 -4z" />
<glyph unicode="]" horiz-adv-x="841" d="M169 1108q8 -96 8 -139v-25h230q16 -2 16 -16v-1155q0 -17 -16 -17h-213q8 -121 8 -164h499q41 1244 58 1516h-590z" />
<glyph unicode="^" horiz-adv-x="776" d="M143 997v2h2q-2 0 -2 -2zM159 248q13 0 105 -70q135 113 147 160h15q106 -125 151 -160q76 45 105 76q-70 49 -265 264q0 -22 -258 -270z" />
<glyph unicode="_" horiz-adv-x="1353" d="M126 -168v-180h1169v180h-1169z" />
<glyph unicode="`" horiz-adv-x="546" d="M47 971q12 -8 260 -256l4 8q29 37 105 102q-166 318 -207 342q-154 -180 -162 -196z" />
<glyph unicode="a" horiz-adv-x="1308" d="M19 63l8 -2h14q132 0 344 -34q54 -21 88 -27q-39 281 -41 416q70 19 190 19q46 0 99 -3q17 -76 64 -504q497 148 510 146q-185 684 -525 1378q-12 2 -82 123q-358 -111 -504 -111q-29 0 -49 4q-136 -622 -136 -1079q0 -175 20 -326zM367 922v16q0 103 24 244l9 -2 q186 -232 278 -480l-2 -16q-40 3 -76 3q-134 0 -209 -36q-24 6 -24 234v37z" />
<glyph unicode="b" horiz-adv-x="1228" d="M-52 1495q159 -320 159 -1239q0 -123 -3 -256h82q22 -1 43 -1q501 0 839 291q111 148 113 285v41v16q0 247 -180 340q-25 0 -25 17q92 88 96 260v12q0 225 -221 305q-86 25 -172 27l-74 2h-24q-222 0 -633 -100zM425 1263q95 29 208 29h15q82 -2 113 -62v-41 q-4 -108 -299 -180q-25 72 -37 254zM464 763q67 35 181 35h24h41q123 -16 121 -100v-33q-4 -139 -326 -231q-14 37 -41 329z" />
<glyph unicode="c" horiz-adv-x="1009" d="M7 697q54 -432 424 -641q123 -55 255 -55q37 0 75 4l25 4q116 13 174 45l-15 56q-8 65 -8 132q0 137 33 283h-8l-326 -106q-21 -2 -40 -2q-133 0 -212 112q-31 48 -51 134q-4 34 -4 66q0 237 215 380q31 21 88 29q14 1 29 1q56 0 120 -18v9q-1 10 -1 21q0 112 128 349 q-106 18 -204 17q-64 0 -125 -7l-17 -2q-481 -59 -555 -604q-7 -40 -7 -91.5t7 -115.5z" />
<glyph unicode="d" horiz-adv-x="1308" d="M-53 1554q156 -1304 156 -1540l16 -8q283 -16 328 -16q530 0 770 589q33 113 33 205v66q0 475 -574 680q-197 57 -426 57q-303 -8 -303 -33zM377 1159q21 16 82 25q229 0 319 -353q9 -28 9 -90q0 -180 -148 -254q-57 -16 -98 -16h-33q-74 0 -74 82q0 49 -57 606z" />
<glyph unicode="e" horiz-adv-x="1052" d="M-40 1220q94 -360 154 -706q44 -252 44 -431q0 -46 -3 -86q649 21 862 58q-25 143 -92 432q-158 -51 -443 -125l-55 174l14 10l33 6q100 17 238 74q-13 21 -86 301q-64 -37 -226 -90l-12 17l-4 30q-23 76 -33 137q12 11 31 13l106 18q78 15 301 35l-8 41q-20 119 -47 324 l-88 -15q-313 -53 -686 -217z" />
<glyph unicode="f" horiz-adv-x="1103" d="M15 1483q-15 -261 -15 -493q0 -455 56 -803l20 -129q52 -37 406 -52l-35 228q-18 118 -43 323l14 13h113q206 0 244 6q19 60 19 151t-19 213q-143 -8 -301 -8h-64l-2 8q-4 80 -4 130q0 84 12 87q121 7 245 7q202 0 413 -19l-2 8q-8 54 -10 430q-39 9 -111 9 q-257 0 -936 -109z" />
<glyph unicode="g" horiz-adv-x="1361" d="M-12 731q55 -548 481 -700q68 -27 226 -29q424 43 598 537q26 117 26 245q0 63 -6 128v8q-520 -68 -618 -78l2 -33q4 -42 4 -83q0 -57 -8 -113q41 20 110 34q21 2 37 2q62 0 66 -32q-64 -189 -228 -203q-13 -1 -25 -1q-163 0 -268 218q-20 43 -24 88q-4 44 -4 83 q0 239 164 296h16q8 1 18 1q49 0 142 -26l149 410h-8q-106 34 -210 34q-29 0 -58 -3l-17 -2q-467 -45 -565 -598q-1 -75 -1 -120.5t1 -62.5zM1115 334q2 2 4 6z" />
<glyph unicode="h" d="M-24 -6l360 -17v9q39 467 66 467h74q106 0 147 -17q-8 -20 -49 -442l16 8q226 8 353 8l73 -8q107 832 140 1311h-9q-127 0 -401 -8q-57 -433 -57 -484h-8q-222 10 -222 41l74 467q-262 66 -360 66q-197 -877 -197 -1401z" />
<glyph unicode="i" horiz-adv-x="575" d="M6 1274q100 -926 180 -1231q25 -55 25 -61l330 69q-51 675 -51 1049q0 144 8 243z" />
<glyph unicode="j" horiz-adv-x="1052" d="M-59 532q57 -262 238 -426q159 -106 303 -106h49q284 0 426 688q49 303 49 606v303q-274 -33 -541 -33l-262 9v-295q0 -13 25 -25h352q33 0 41 -246v-131q-21 -393 -180 -393q-133 0 -197 270h-8q-72 -24 -295 -221z" />
<glyph unicode="k" horiz-adv-x="1333" d="M13 1309q6 -260 12 -385l29 -484q14 -278 57 -440l334 45l-6 98q-6 125 -10 342l8 2q356 -391 375 -389q469 174 489 174q-22 29 -647 441l-10 16q567 582 573 598h-5q-53 0 -464 31q-92 -113 -252 -342l-16 -10h-8q14 206 30 329z" />
<glyph unicode="l" horiz-adv-x="1011" d="M12 138q0 -131 25 -131q49 0 426 -16q260 0 475 65q-25 215 -25 345v172q-338 -140 -500 -140q0 8 -8 8q123 689 205 918l-492 57q-106 -733 -106 -1204v-74z" />
<glyph unicode="m" horiz-adv-x="1589" d="M-2 1074q33 -875 82 -1041q336 33 336 49q-33 437 -33 517q8 14 8 32h17q139 -411 188 -630h8q187 16 352 40q17 416 17 451l16 8h8q179 -504 197 -508q188 68 360 181q-65 430 -450 1064q-307 -24 -426 -40q8 -152 8 -222v-319h-16q0 53 -238 647q-434 -207 -434 -221 v-8zM138 1071q0 -2 2 -6q-2 2 -2 6zM326 1163l4 -8q0 2 -1 3t-1 3z" />
<glyph unicode="n" horiz-adv-x="1163" d="M-29 1075q90 -670 188 -1041q37 0 336 33q-82 442 -82 549v8h17q211 -473 246 -631l409 41q16 306 16 664v229q-6 303 -40 303q-66 0 -418 -32v-9q49 -348 65 -540h-16q-137 332 -303 647h-17q-376 -193 -401 -221z" />
<glyph unicode="o" horiz-adv-x="1419" d="M1 725q0 -365 360 -633q154 -94 336 -94h41q357 0 557 371q41 114 41 211v34q0 385 -344 627q-155 80 -286 80h-74q-346 0 -574 -342q-57 -139 -57 -254zM419 676v51q24 209 180 209q166 0 287 -260l8 -76q0 -158 -229 -201h-17q-196 0 -229 277z" />
<glyph unicode="p" horiz-adv-x="1173" d="M-12 1326q66 -680 66 -975v-164q0 -43 -9 -139q287 -25 443 -57q-41 360 -41 516q16 8 24 8q35 0 66 -8q432 0 573 336q33 129 33 204q0 334 -450 394q0 8 -91 8h-82q-284 0 -532 -123zM414 1113q14 8 98 16q213 -20 213 -139v-8q0 -160 -237 -197h-33q-16 0 -16 25 q0 74 -25 303z" />
<glyph unicode="q" horiz-adv-x="1501" d="M-6 818q0 -383 344 -704q188 -115 336 -115h33q82 0 213 33q219 -154 278 -164q148 98 262 278q-118 66 -254 99l-8 16q131 162 131 385v74q0 395 -336 680q-170 90 -294 90h-74q-344 0 -574 -385q-57 -170 -57 -287zM412 777v8q0 176 131 238l57 8q162 0 279 -287 q8 -43 8 -82q0 -184 -246 -221q-137 0 -205 172q-24 60 -24 164z" />
<glyph unicode="r" horiz-adv-x="1222" d="M12 1360q74 -770 74 -1040q-8 -174 -17 -246q310 -25 443 -57q-33 323 -41 516l16 8h115q24 0 139 -549q139 41 434 82v8q-4 123 -147 459l-58 90v16q197 152 197 426q0 269 -303 369q-117 33 -229 33h-99q-241 0 -524 -115zM438 1139q8 8 98 16q187 0 213 -131v-16 q-39 -197 -237 -197h-25q-22 0 -49 328z" />
<glyph unicode="s" horiz-adv-x="1050" d="M-6 1288q-6 -43 -6 -84q0 -265 256 -403q296 -88 296 -195q0 -5 -1 -10q13 -1 13 -45q0 -22 -3 -55l-2 -17q-14 -117 -164 -119l-41 7q-69 8 -235 96q10 -42 10 -86q0 -28 -4 -56l-27 -210q244 -82 367 -99l65 -8q36 -5 69 -5q235 0 359 239q25 73 31 118l12 82 q5 39 5 75q0 290 -320 429q-204 61 -204 195q0 11 1 22l2 16q12 83 150 83q16 0 35 -1q67 -8 245 -82l2 9q-25 115 -25 211q0 43 5 82q-254 57 -387 75q-72 9 -134 9q-335 0 -370 -273z" />
<glyph unicode="t" horiz-adv-x="1268" d="M9 969q188 49 328 49q57 -368 57 -942v-114q45 -9 66 -9q311 17 311 41q-17 770 -17 1041v16l9 16q106 -16 286 -16h164q-41 266 -57 492q-178 0 -1098 -107q-49 -127 -49 -360v-107z" />
<glyph unicode="u" horiz-adv-x="1384" d="M-5 1380q0 -953 262 -1213q199 -196 410 -196q405 0 614 467q33 120 33 180q0 461 -148 983q-184 -66 -434 -115q172 -454 172 -672v-81q0 -185 -147 -271q-74 -10 -90 -16q-295 0 -295 516q16 340 41 475q-176 -8 -262 -8h-156v-49z" />
<glyph unicode="v" horiz-adv-x="1081" d="M-14 1265q0 -350 336 -1269l98 8h66q129 0 311 -33q160 297 254 1434q8 0 8 8q-16 8 -442 74v-41q0 -172 8 -312q0 -319 -90 -688h-17q-155 682 -155 934q-262 -108 -377 -115z" />
<glyph unicode="w" horiz-adv-x="1865" d="M-35 1250q0 -344 336 -1270q129 17 147 17q174 -9 328 -41q74 157 139 377h17q32 -127 106 -304l98 9h58q119 0 319 -33q213 547 213 770q33 131 66 508l-434 65q0 -534 -115 -876h-16q-156 760 -156 942q-256 -115 -393 -115l-58 8v-188q0 -309 -106 -688h-17 q-155 692 -155 934h-8q-181 -82 -369 -115zM887 805v2q2 -4 2 -14q-2 4 -2 12z" />
<glyph unicode="x" horiz-adv-x="1509" d="M-2 1115q2 -10 516 -507l-377 -631q449 43 492 57q137 315 155 320q187 -269 222 -279l434 131q-107 117 -484 483l361 672l-434 -24q-191 -418 -213 -418q-297 354 -312 360z" />
<glyph unicode="y" d="M-13 1361l395 -897q-30 -59 -291 -432l9 -2l448 -94q311 403 365 719q10 6 225 727q-393 -33 -432 -43q-127 -447 -133 -492l-17 2q-55 262 -151 625h-1q-21 0 -417 -113z" />
<glyph unicode="z" horiz-adv-x="1339" d="M5 1216q25 -391 33 -442q174 -17 319 -17h25q98 0 287 25v-8q-123 -211 -484 -369q-74 -41 -74 -49q41 -324 41 -352h164q535 0 975 98v8q-59 371 -82 418q-12 0 -499 -123v8q0 6 507 385q-98 398 -98 434q-455 -41 -590 -41q-139 0 -524 33v-8z" />
<glyph unicode="{" horiz-adv-x="862" d="M153 440h41q115 0 115 -311q55 -287 123 -287q67 -73 237 -73h49q17 0 17 16v287l-58 -9h-8q-90 0 -90 271q0 98 -131 205h-16v24q141 31 163 377q0 107 74 107h8l58 -9v295h-66q-256 0 -328 -196q-30 -138 -57 -410q-47 -65 -115 -65h-16v-222z" />
<glyph unicode="|" horiz-adv-x="514" d="M198 1212l8 -32q0 -230 33 -1524h164q33 1309 33 1556h-238z" />
<glyph unicode="}" horiz-adv-x="876" d="M184 -109v-303q47 0 57 -8q217 0 303 139q82 172 82 451q33 90 131 90h9v213q-156 0 -156 270q0 349 -270 402h-156v-295l16 8h74q55 0 74 -303q24 -113 139 -188v-9q-131 -73 -131 -172q-39 -286 -66 -286q0 -17 -49 -25q-16 0 -57 16z" />
<glyph unicode="~" horiz-adv-x="993" d="M135 573q115 -81 131 -81q41 57 90 57q225 -57 352 -74q107 0 205 139l-131 91q-26 -66 -82 -66q-293 74 -360 74q-113 0 -205 -140z" />
<glyph unicode="&#xab;" horiz-adv-x="1414" d="M3 251q15 -22 635 -360v267q0 15 -321 88v13q321 233 321 241l-39 441q-445 -383 -596 -529v-161zM675 219q15 -22 640 -363v269q0 15 -324 89v13q324 235 324 243l-39 444q-448 -386 -601 -533v-162z" />
<glyph unicode="&#xad;" horiz-adv-x="675" d="M114 504l33 -230h393l33 230h-459z" />
<glyph unicode="&#xb4;" horiz-adv-x="645" d="M110 670l8 -2q43 -23 119 -86q287 215 305 258q-203 123 -221 129q-6 -15 -211 -299z" />
<glyph unicode="&#xbb;" horiz-adv-x="1365" d="M36 -116q600 341 614 363v162q-146 147 -576 533l-38 -444q0 -8 311 -243v-13q-311 -74 -311 -89v-269zM686 -81q594 338 609 360v161q-145 146 -572 529l-37 -441q0 -8 308 -241v-13q-308 -73 -308 -88v-267z" />
<glyph unicode="&#x406;" horiz-adv-x="575" d="M6 1274q100 -926 180 -1231q25 -55 25 -61l330 69q-70 936 -43 1292z" />
<glyph unicode="&#x407;" horiz-adv-x="739" d="M6 1567v28q0 72 88 123q49 11 53 11q117 0 135 -109v-10q0 -66 -77 -123q-37 -14 -68 -14q-131 20 -131 94zM102 1489h2q2 0 9.5 2t13.5 4t8 6q-14 -8 -29 -12h-4zM147 1274q101 -926 181 -1231q24 -55 24 -61l330 69q-70 936 -43 1292zM344 1577v29q0 71 88 123 q49 10 53 10q117 0 135 -109v-10q0 -66 -77 -123q-37 -14 -68 -14q-131 20 -131 94zM440 1499h2q2 0 9.5 2t13.5 4t8 6q-14 -8 -29 -12h-4z" />
<glyph unicode="&#x410;" horiz-adv-x="1308" d="M19 63l8 -2q135 2 358 -34q54 -21 88 -27q-39 281 -41 416q97 26 289 16q17 -76 64 -504q497 148 510 146q-185 684 -525 1378q-12 2 -82 123q-428 -133 -553 -107q-188 -860 -116 -1405zM367 922q-2 108 24 260l9 -2q186 -232 278 -480l-2 -16q-190 12 -285 -33 q-26 6 -24 271z" />
<glyph unicode="&#x411;" horiz-adv-x="1128" d="M11 15q18 117 29 187l12 102q45 320 61 830q-2 139 -12 258q123 24 234 24q225 4 397 -18l41 -6q88 -13 192 -51q0 -2 2 -2q-12 -60 -22 -132q-6 -38 -2 -135q-2 -2 -311 23q-80 2 -175 -2q-8 -54 0 -213q117 12 211 0l15 -2q225 -33 286 -107q74 -51 101 -176 q18 -92 8 -156v-10q-16 -112 -113 -227q-137 -105 -202 -129q-246 -129 -674 -72l-74 10zM431 290h2q31 -4 201 45q122 47 131 115q2 0 4 16l2 10q10 68 -25 92q-37 29 -92 37l-39 4q-108 17 -176 -8q-10 -74 -8 -311z" />
<glyph unicode="&#x412;" horiz-adv-x="1228" d="M-52 1495q180 -363 156 -1495h82q530 -13 882 290q111 148 113 285v41q6 260 -180 356q-25 0 -25 17q92 88 96 260q6 235 -221 317q-86 25 -172 27l-74 2q-223 6 -657 -100zM425 1263q101 31 223 29q82 -2 113 -62v-41q-4 -108 -299 -180q-25 72 -37 254zM464 763 q74 39 205 35h41q123 -16 121 -100v-33q-4 -139 -326 -231q-14 37 -41 329z" />
<glyph unicode="&#x413;" horiz-adv-x="1011" d="M7 1245q0 -496 72 -1270l458 70q-43 256 -110 958q8 0 8 11q178 32 510 2l4 125q19 83 27 321q-211 16 -490 16q-401 -16 -452 -16q-27 0 -27 -139v-78z" />
<glyph unicode="&#x414;" horiz-adv-x="1288" d="M13 372l9 -403q883 -9 1179 26q55 14 61 14l-29 272q-887 35 -1220 91zM77 115q16 -9 438 -87l2 38q8 158 6 287q14 295 121 631l16 -1q125 -635 114 -867q267 89 382 90q15 323 -279 1184l-99 -3l-65 2q-129 5 -310 43q-173 -267 -318 -1311q-8 1 -8 -6zM1297 614l2 4 q-2 -2 -2 -4z" />
<glyph unicode="&#x415;" horiz-adv-x="1052" d="M-40 1220q94 -360 154 -706q55 -316 41 -517q649 21 862 58q-25 143 -92 432q-158 -51 -443 -125l-55 174l14 10l33 6q100 17 238 74q-13 21 -86 301q-64 -37 -226 -90l-12 17l-4 30q-23 76 -33 137q12 11 31 13l106 18q78 15 301 35l-8 41q-20 119 -47 324l-88 -15 q-313 -53 -686 -217z" />
<glyph unicode="&#x416;" horiz-adv-x="1818" d="M-40 155q16 0 403 -174q17 -2 312 391l6 -2q-4 -219 80 -262l8 -53l123 59q86 -69 98 211l25 483q4 125 10 388h-307q-84 -97 -72 -306h-8l-12 11q-134 231 -209 344q-361 -33 -387 -31q4 -16 473 -600l-8 -16q-517 -414 -535 -443zM634 1243q6 -263 12 -387l27 -484 q12 -280 53 -442l313 45l-6 98q-6 125 -8 344l6 2q334 -393 352 -391q441 174 459 174q-20 29 -606 443l-10 16q532 584 538 600q-30 -2 -440 31q-86 -113 -238 -344l-14 -11h-8q14 209 29 332z" />
<glyph unicode="&#x417;" horiz-adv-x="1116" d="M22 8q188 -41 328 -41h106q412 0 477 228l21 63q20 232 -162 379q246 131 246 240q24 8 33 180l-23 96q-27 101 -137 160q-346 176 -799 92l-72 -22l-10 -80q-8 -236 -4 -264l35 -27q303 45 436 45h57q80 0 115 -57v-25q0 -127 -444 -217q53 -63 -17 -195q148 23 191 0 q69 -6 115 -71v-49q0 -80 -451 -140q10 -278 -41 -295z" />
<glyph unicode="&#x418;" horiz-adv-x="1163" d="M12 714q0 -358 16 -664l412 -41q35 158 248 631h17v-8q0 -107 -83 -549q301 -33 339 -33q98 371 189 1041q-25 28 -404 221h-17q-167 -315 -305 -647h-16q16 192 65 540v9q-354 32 -421 32q-34 0 -40 -303v-229z" />
<glyph unicode="&#x419;" horiz-adv-x="1233" d="M20 696q0 -362 17 -670l421 -41q36 160 254 635h16v-8q0 -106 -85 -553q308 -33 347 -33q101 373 193 1049q-25 29 -414 223h-15q-172 -317 -312 -653h-18q18 194 67 545v8q-360 33 -430 33q-35 0 -41 -306v-229zM379 1485q79 -140 166 -140q102 17 284 74q43 0 75 -57 q13 0 104 82q-73 139 -164 139q-57 0 -294 -74q-43 0 -65 66z" />
<glyph unicode="&#x41a;" horiz-adv-x="1333" d="M13 1309q6 -260 12 -385l29 -484q14 -278 57 -440l334 45l-6 98q-6 125 -10 342l8 2q356 -391 375 -389q469 174 489 174q-22 29 -647 441l-10 16q567 582 573 598q-33 -2 -469 31q-92 -113 -252 -342l-16 -10h-8q14 206 30 329z" />
<glyph unicode="&#x41b;" horiz-adv-x="1093" d="M-48 22q16 -9 438 -97l2 41q9 172 9 312q16 319 124 681h17q121 -690 106 -942q269 97 383 97q38 306 -270 1284l-98 -2l-66 4q-129 6 -309 47q-174 -287 -328 -1417q-8 0 -8 -8z" />
<glyph unicode="&#x41c;" horiz-adv-x="1589" d="M-2 1074q33 -875 82 -1041q336 33 336 49q-33 437 -33 517q8 14 8 32h17q139 -411 188 -630h8q187 16 352 40q17 416 17 451l16 8h8q179 -504 197 -508q188 68 360 181q-65 430 -450 1064q-307 -24 -426 -40q8 -152 8 -222v-319h-16q0 53 -238 647q-434 -207 -434 -221 v-8zM138 1071q0 -2 2 -6q-2 2 -2 6zM326 1163l4 -8q0 2 -1 3t-1 3z" />
<glyph unicode="&#x41d;" d="M-24 -6l360 -17v9q39 467 66 467h74q106 0 147 -17q-8 -20 -49 -442l16 8q226 8 353 8l73 -8q107 832 140 1311h-9q-127 0 -401 -8q-57 -433 -57 -484h-8q-222 10 -222 41l74 467q-262 66 -360 66q-197 -877 -197 -1401z" />
<glyph unicode="&#x41e;" horiz-adv-x="1419" d="M1 725q0 -365 360 -633q154 -94 336 -94h41q357 0 557 371q41 114 41 211v34q0 385 -344 627q-155 80 -286 80h-74q-346 0 -574 -342q-57 -139 -57 -254zM419 676v51q24 209 180 209q166 0 287 -260l8 -76q0 -158 -229 -201h-17q-196 0 -229 277z" />
<glyph unicode="&#x41f;" horiz-adv-x="1132" d="M-19 1258q29 -297 39 -473q12 -262 63 -748l27 -106q43 18 153.5 44.5t154.5 5t44 -0.5q-57 667 -71 901v14l-7 33q105 12 277 4l160 -10q-54 229 -54 375q-194 55 -786 -39zM309 903l180 29q108 6 207 10l6 -14l2 -14q14 -236 41 -903q182 8 262 -3q25 -16 61 -8l13 111 q-8 487 -29 770q-20 141 -20 455q-887 -31 -717 -54q16 -145 -6 -379z" />
<glyph unicode="&#x420;" horiz-adv-x="1173" d="M-12 1326q66 -680 66 -975v-164q0 -43 -9 -139q287 -25 443 -57q-41 360 -41 516q16 8 24 8q35 0 66 -8q432 0 573 336q33 129 33 204q0 334 -450 394q0 8 -91 8h-82q-284 0 -532 -123zM414 1113q14 8 98 16q213 -20 213 -139v-8q0 -160 -237 -197h-33q-16 0 -16 25 q0 74 -25 303z" />
<glyph unicode="&#x421;" horiz-adv-x="1009" d="M7 697q54 -432 424 -641q158 -71 330 -51l25 4q116 13 174 45l-15 56q-24 198 25 415h-8l-326 -106q-162 -19 -252 110q-31 48 -51 134q-33 284 211 446q31 21 88 29q68 6 149 -17v9q-14 110 127 370q-176 29 -329 10l-17 -2q-481 -59 -555 -604q-14 -80 0 -207z" />
<glyph unicode="&#x422;" horiz-adv-x="1268" d="M9 969q188 49 328 49q57 -368 57 -942v-114q45 -9 66 -9q311 17 311 41q-17 770 -17 1041v16l9 16q106 -16 286 -16h164q-41 266 -57 492q-178 0 -1098 -107q-49 -127 -49 -360v-107z" />
<glyph unicode="&#x423;" d="M-13 1361l395 -897q-30 -59 -291 -432l9 -2l448 -94q311 403 365 719q10 6 225 727q-393 -33 -432 -43q-127 -447 -133 -492l-17 2q-55 262 -151 625q-15 2 -418 -113z" />
<glyph unicode="&#x424;" horiz-adv-x="1244" d="M1 715q87 -155 219.5 -209.5t162.5 -66.5q-22 -145 -115 -458q233 40 439 10q1 53 -5 102l15 151q25 290 -35 942q7 135 33 145l-273 25q-97 19 -234.5 -52t-205.5 -248q-45 -166 -1 -341zM238 921l1 7q12 103 183 102q65 -14 76 -23q-31 -188 -50 -259q-3 -21 -16 -20 l-26 3q-184 52 -168 190zM440 106q61 -97 194 -88q-5 258 14 407q14 6 21 5q27 -3 50 -15q340 -48 494 257q42 120 34 191q-15 322 -287 428q1 8 -69 18l-65 9q-224 32 -343 25q49 -326 43 -941l-12 -208q-221 -71 -74 -88zM745 730q9 63 15 259q12 6 82 3q171 -42 157 -142 l-1 -7q-18 -135 -215 -139l-27 4q-13 2 -11 22z" />
<glyph unicode="&#x425;" horiz-adv-x="1509" d="M-2 1115q2 -10 516 -507l-377 -631q449 43 492 57q137 315 155 320q187 -269 222 -279l434 131q-107 117 -484 483l361 672l-434 -24q-191 -418 -213 -418q-297 354 -312 360z" />
<glyph unicode="&#x426;" horiz-adv-x="1134" d="M-53 1191q0 1 2 1q95 -15 166 -15q67 0 154 21q29 -77 76 -307q16 -87 50 -388h1l194 48q-49 419 -97 715q90 17 436 54q29 2 44 2q9 0 9 -314v-138q0 -124 -12 -624q96 -21 167 -31v-2q-22 -104 -22 -214v-48l1 -17l-3 -2q-278 73 -381 73h-5q0 8 -183 9h-5 q-168 0 -430 -27q-12 37 -55 291q-53 303 -107 913z" />
<glyph unicode="&#x427;" horiz-adv-x="1132" d="M64 549q109 -135 312 -209q522 -137 442 170q49 80 63 123q107 330 127 737q-141 -4 -321 19q-25 -350 -37 -522l-18 -74q0 -162 -39 -168q-97 35 -166 94q-39 31 -47 57q73 439 127 629q-168 57 -228 76l-104 37l-12 -35q-156 -703 -99 -934zM578 23l9 -51 q170 36 350 -21q129 961 172 1397l-416 39q-100 -1043 -115 -1364z" />
<glyph unicode="&#x428;" horiz-adv-x="1531" d="M-34 1127l8 -131q29 -469 174 -1045q400 70 779 90q348 21 565 -39q35 953 14 1270q-158 -8 -477 -51q41 -240 96 -670l-194 -47l-11 23l-2 49q-10 149 -59 360q-23 -14 -334 -67q35 -101 78 -346l-21 -17h-32q-84 -18 -152 -20q-10 20 -10 47l-10 160q-9 114 -13 444 l-45 -4q-129 -6 -354 -6z" />
<glyph unicode="&#x429;" horiz-adv-x="1685" d="M-18 1186h4q301 0 389 12l4 -6v-6q0 -303 25 -649l8 -21q41 0 150 21h34l21 18q-35 223 -76 358q0 9 76 17q166 33 254 55q4 0 39 -186q22 -166 22 -240q11 -20 11 -22l196 49q-53 440 -96 698q0 2 199 27q225 28 274 28q6 0 8 -249v-156q0 -197 -12 -647h2 q135 -29 162 -29v-2q-23 -102 -23 -238v-22l2 -16q-2 0 -2 -3q-268 74 -385 74q0 6 -158 8q-307 0 -794 -73q-148 -25 -154 -25q-98 408 -141 762q-23 162 -29 278z" />
<glyph unicode="&#x42a;" horiz-adv-x="1103" d="M-22 991q347 32 455 140q20 17 23 17l6 277q-255 -78 -473 -63q20 -188 -11 -371zM96 92q214 -112 453 -100l70 4q75 3 75 12q377 78 365 408q-3 76 -35 202q-131 326 -495 308q-25 -10 -55 -11q-7 0 -21 7q-5 155 16 513q-127 -47 -371 -76q11 -95 13 -137l5 -163 q11 -292 -20 -967zM448 321q12 228 10 300q-1 24 12 25l28 2q202 -27 207 -185v-7q4 -119 -174 -148q-71 5 -83 13z" />
<glyph unicode="&#x42b;" horiz-adv-x="1458" d="M24 87q208 -101 443 -90l67 3q75 4 74 11q369 71 358 372q-3 68 -35 182q-129 298 -484 281q-25 -8 -54 -10q-7 0 -20 6q-6 141 15 467q-127 -36 -362 -70q10 -85 12 -124l5 -148q11 -266 -19 -880zM367 295q12 208 9 274q-1 23 13 23l27 1q197 -24 203 -167l1 -7 q3 -108 -172 -135q-69 5 -81 11zM933 1259q90 -881 162 -1171q23 -53 23 -60l299 67q-63 891 -39 1231z" />
<glyph unicode="&#x42c;" horiz-adv-x="1024" d="M-33 1278q19 -91 24 -132l21 -157q37 -281 69 -938q221 -87 457 -53l68 10q75 10 74 18q367 111 325 430q-10 72 -53 191q-160 304 -519 252q-24 -12 -53 -16q-7 -1 -22 5q-19 149 -31 498q-125 -50 -360 -108zM390 598q-3 23 10 25l27 4q202 -7 223 -159l1 -8 q15 -113 -160 -158q-70 -3 -83 4q-9 221 -18 292z" />
<glyph unicode="&#x42d;" horiz-adv-x="1038" d="M6 455q51 -208 25 -399l-15 -52q60 -32 178 -43l25 -5q176 -19 338 50q379 200 434 614q14 121 0 198q-76 521 -567 578l-19 2q-155 18 -336 -10q144 -249 130 -355v-7q83 21 153 15q57 -8 90 -28q250 -154 215 -427q-20 -82 -51 -127q-92 -124 -258 -107l-334 103h-8z M319 813l72 -272q131 41 502 68l-39 185q-4 0 -29 8q-133 24 -506 11z" />
<glyph unicode="&#x42e;" horiz-adv-x="1797" d="M69 76q16 -64 14 -70l342 10q100 1021 191 1399l-504 20q-67 -1015 -43 -1359zM180 786l30 -307q476 40 634 82q29 14 32 14l-32 206q-481 -20 -664 5zM584 769q-41 -404 244 -735q124 -119 283 -136l37 -4q312 -33 530 358q48 124 59 230l4 39q44 427 -230 727 q-127 103 -242 114l-64 7q-304 33 -542 -324q-65 -150 -79 -276zM945 659l6 57q45 229 181 214q146 -15 222 -315l-2 -84q-18 -175 -223 -201l-15 2q-172 18 -169 327z" />
<glyph unicode="&#x42f;" horiz-adv-x="1222" d="M30 55q283 -39 418 -79q110 531 134 531h112l15 -8q-8 -186 -41 -499q129 31 426 55q-8 70 -16 238q0 261 72 1006q-272 111 -505 111h-95q-108 0 -222 -32q-290 -97 -290 -357q0 -265 189 -412v-15l-54 -87q-139 -325 -143 -444v-8zM440 958v16q26 127 205 127 q86 -8 95 -16q-26 -317 -46 -317h-26q-191 0 -228 190z" />
<glyph unicode="&#x430;" horiz-adv-x="1308" d="M19 63l8 -2q135 2 358 -34q54 -21 88 -27q-39 281 -41 416q97 26 289 16q17 -76 64 -504q497 148 510 146q-185 684 -525 1378q-12 2 -82 123q-428 -133 -553 -107q-188 -860 -116 -1405zM367 922q-2 108 24 260l9 -2q186 -232 278 -480l-2 -16q-190 12 -285 -33 q-26 6 -24 271z" />
<glyph unicode="&#x431;" horiz-adv-x="1128" d="M11 15q18 117 29 187l12 102q45 320 61 830q-2 139 -12 258q123 24 234 24q225 4 397 -18l41 -6q88 -13 192 -51q0 -2 2 -2q-12 -60 -22 -132q-6 -38 -2 -135q-2 -2 -311 23q-80 2 -175 -2q-8 -54 0 -213q117 12 211 0l15 -2q225 -33 286 -107q74 -51 101 -176 q18 -92 8 -156v-10q-16 -112 -113 -227q-137 -105 -202 -129q-246 -129 -674 -72l-74 10zM431 290h2q31 -4 201 45q122 47 131 115q2 0 4 16l2 10q10 68 -25 92q-37 29 -92 37l-39 4q-108 17 -176 -8q-10 -74 -8 -311z" />
<glyph unicode="&#x432;" horiz-adv-x="1228" d="M-52 1495q180 -363 156 -1495h82q530 -13 882 290q111 148 113 285v41q6 260 -180 356q-25 0 -25 17q92 88 96 260q6 235 -221 317q-86 25 -172 27l-74 2q-223 6 -657 -100zM425 1263q101 31 223 29q82 -2 113 -62v-41q-4 -108 -299 -180q-25 72 -37 254zM464 763 q74 39 205 35h41q123 -16 121 -100v-33q-4 -139 -326 -231q-14 37 -41 329z" />
<glyph unicode="&#x433;" horiz-adv-x="1011" d="M7 1245q0 -496 72 -1270l458 70q-43 256 -110 958q8 0 8 11q178 32 510 2l4 125q19 83 27 321q-211 16 -490 16q-401 -16 -452 -16q-27 0 -27 -139v-78z" />
<glyph unicode="&#x434;" horiz-adv-x="1288" d="M13 372l9 -403q883 -9 1179 26q55 14 61 14l-29 272q-887 35 -1220 91zM77 115q16 -9 438 -87l2 38q8 158 6 287q14 295 121 631l16 -1q125 -635 114 -867q267 89 382 90q15 323 -279 1184l-99 -3l-65 2q-129 5 -310 43q-173 -267 -318 -1311q-8 1 -8 -6zM1297 614l2 4 q-2 -2 -2 -4z" />
<glyph unicode="&#x435;" horiz-adv-x="1052" d="M-40 1220q94 -360 154 -706q55 -316 41 -517q649 21 862 58q-25 143 -92 432q-158 -51 -443 -125l-55 174l14 10l33 6q100 17 238 74q-13 21 -86 301q-64 -37 -226 -90l-12 17l-4 30q-23 76 -33 137q12 11 31 13l106 18q78 15 301 35l-8 41q-20 119 -47 324l-88 -15 q-313 -53 -686 -217z" />
<glyph unicode="&#x436;" horiz-adv-x="1818" d="M-40 155q16 0 403 -174q17 -2 312 391l6 -2q-4 -219 80 -262l8 -53l123 59q86 -69 98 211l25 483q4 125 10 388h-307q-84 -97 -72 -306h-8l-12 11q-134 231 -209 344q-361 -33 -387 -31q4 -16 473 -600l-8 -16q-517 -414 -535 -443zM634 1243q6 -263 12 -387l27 -484 q12 -280 53 -442l313 45l-6 98q-6 125 -8 344l6 2q334 -393 352 -391q441 174 459 174q-20 29 -606 443l-10 16q532 584 538 600q-30 -2 -440 31q-86 -113 -238 -344l-14 -11h-8q14 209 29 332z" />
<glyph unicode="&#x437;" horiz-adv-x="1116" d="M22 8q188 -41 328 -41h106q412 0 477 228l21 63q20 232 -162 379q246 131 246 240q24 8 33 180l-23 96q-27 101 -137 160q-346 176 -799 92l-72 -22l-10 -80q-8 -236 -4 -264l35 -27q303 45 436 45h57q80 0 115 -57v-25q0 -127 -444 -217q53 -63 -17 -195q148 23 191 0 q69 -6 115 -71v-49q0 -80 -451 -140q10 -278 -41 -295z" />
<glyph unicode="&#x438;" horiz-adv-x="1163" d="M12 714q0 -358 16 -664l412 -41q35 158 248 631h17v-8q0 -107 -83 -549q301 -33 339 -33q98 371 189 1041q-25 28 -404 221h-17q-167 -315 -305 -647h-16q16 192 65 540v9q-354 32 -421 32q-34 0 -40 -303v-229z" />
<glyph unicode="&#x439;" horiz-adv-x="1233" d="M20 696q0 -362 17 -670l421 -41q36 160 254 635h16v-8q0 -106 -85 -553q308 -33 347 -33q101 373 193 1049q-25 29 -414 223h-15q-172 -317 -312 -653h-18q18 194 67 545v8q-360 33 -430 33q-35 0 -41 -306v-229zM379 1485q79 -140 166 -140q102 17 284 74q43 0 75 -57 q13 0 104 82q-73 139 -164 139q-57 0 -294 -74q-43 0 -65 66z" />
<glyph unicode="&#x43a;" horiz-adv-x="1333" d="M13 1309q6 -260 12 -385l29 -484q14 -278 57 -440l334 45l-6 98q-6 125 -10 342l8 2q356 -391 375 -389q469 174 489 174q-22 29 -647 441l-10 16q567 582 573 598q-33 -2 -469 31q-92 -113 -252 -342l-16 -10h-8q14 206 30 329z" />
<glyph unicode="&#x43b;" horiz-adv-x="1093" d="M-48 22q16 -9 438 -97l2 41q9 172 9 312q16 319 124 681h17q121 -690 106 -942q269 97 383 97q38 306 -270 1284l-98 -2l-66 4q-129 6 -309 47q-174 -287 -328 -1417q-8 0 -8 -8z" />
<glyph unicode="&#x43c;" horiz-adv-x="1589" d="M-2 1074q33 -875 82 -1041q336 33 336 49q-33 437 -33 517q8 14 8 32h17q139 -411 188 -630h8q187 16 352 40q17 416 17 451l16 8h8q179 -504 197 -508q188 68 360 181q-65 430 -450 1064q-307 -24 -426 -40q8 -152 8 -222v-319h-16q0 53 -238 647q-434 -207 -434 -221 v-8zM138 1071q0 -2 2 -6q-2 2 -2 6zM326 1163l4 -8q0 2 -1 3t-1 3z" />
<glyph unicode="&#x43d;" d="M-21 -3l360 -17v9q39 467 66 467h74q106 0 147 -17q-8 -20 -49 -442l16 8q226 8 353 8l73 -8q107 832 140 1311h-9q-127 0 -401 -8q-57 -433 -57 -484h-8q-222 10 -222 41l74 467q-262 66 -360 66q-197 -877 -197 -1401z" />
<glyph unicode="&#x43e;" horiz-adv-x="1419" d="M1 725q0 -365 360 -633q154 -94 336 -94h41q357 0 557 371q41 114 41 211v34q0 385 -344 627q-155 80 -286 80h-74q-346 0 -574 -342q-57 -139 -57 -254zM419 676v51q24 209 180 209q166 0 287 -260l8 -76q0 -158 -229 -201h-17q-196 0 -229 277z" />
<glyph unicode="&#x43f;" horiz-adv-x="1132" d="M-19 1258q29 -297 39 -473q12 -262 63 -748l27 -106q43 18 153.5 44.5t154.5 5t44 -0.5q-57 667 -71 901v14l-7 33q105 12 277 4l160 -10q-54 229 -54 375q-194 55 -786 -39zM309 903l180 29q108 6 207 10l6 -14l2 -14q14 -236 41 -903q182 8 262 -3q25 -16 61 -8l13 111 q-8 487 -29 770q-20 141 -20 455q-887 -31 -717 -54q16 -145 -6 -379z" />
<glyph unicode="&#x440;" horiz-adv-x="1173" d="M-12 1326q66 -680 66 -975v-164q0 -43 -9 -139q287 -25 443 -57q-41 360 -41 516q16 8 24 8q35 0 66 -8q432 0 573 336q33 129 33 204q0 334 -450 394q0 8 -91 8h-82q-284 0 -532 -123zM414 1113q14 8 98 16q213 -20 213 -139v-8q0 -160 -237 -197h-33q-16 0 -16 25 q0 74 -25 303z" />
<glyph unicode="&#x441;" horiz-adv-x="1009" d="M7 697q54 -432 424 -641q158 -71 330 -51l25 4q116 13 174 45l-15 56q-24 198 25 415h-8l-326 -106q-162 -19 -252 110q-31 48 -51 134q-33 284 211 446q31 21 88 29q68 6 149 -17v9q-14 110 127 370q-176 29 -329 10l-17 -2q-481 -59 -555 -604q-14 -80 0 -207z" />
<glyph unicode="&#x442;" horiz-adv-x="1268" d="M9 969q188 49 328 49q57 -368 57 -942v-114q45 -9 66 -9q311 17 311 41q-17 770 -17 1041v16l9 16q106 -16 286 -16h164q-41 266 -57 492q-178 0 -1098 -107q-49 -127 -49 -360v-107z" />
<glyph unicode="&#x443;" d="M-13 1361l395 -897q-30 -59 -291 -432l9 -2l448 -94q311 403 365 719q10 6 225 727q-393 -33 -432 -43q-127 -447 -133 -492l-17 2q-55 262 -151 625q-15 2 -418 -113z" />
<glyph unicode="&#x444;" horiz-adv-x="1244" d="M1 715q87 -155 219.5 -209.5t162.5 -66.5q-22 -145 -115 -458q233 40 439 10q1 53 -5 102l15 151q25 290 -35 942q7 135 33 145l-273 25q-97 19 -234.5 -52t-205.5 -248q-45 -166 -1 -341zM238 921l1 7q12 103 183 102q65 -14 76 -23q-31 -188 -50 -259q-3 -21 -16 -20 l-26 3q-184 52 -168 190zM440 106q61 -97 194 -88q-5 258 14 407q14 6 21 5q27 -3 50 -15q340 -48 494 257q42 120 34 191q-15 322 -287 428q1 8 -69 18l-65 9q-224 32 -343 25q49 -326 43 -941l-12 -208q-221 -71 -74 -88zM745 730q9 63 15 259q12 6 82 3q171 -42 157 -142 l-1 -7q-18 -135 -215 -139l-27 4q-13 2 -11 22z" />
<glyph unicode="&#x445;" horiz-adv-x="1509" d="M-2 1115q2 -10 516 -507l-377 -631q449 43 492 57q137 315 155 320q187 -269 222 -279l434 131q-107 117 -484 483l361 672l-434 -24q-191 -418 -213 -418q-297 354 -312 360z" />
<glyph unicode="&#x446;" horiz-adv-x="1134" d="M-53 1191q0 1 2 1q95 -15 166 -15q67 0 154 21q29 -77 76 -307q16 -87 50 -388h1l194 48q-49 419 -97 715q90 17 436 54q29 2 44 2q9 0 9 -314v-138q0 -124 -12 -624q96 -21 167 -31v-2q-22 -104 -22 -214v-48l1 -17l-3 -2q-278 73 -381 73h-5q0 8 -183 9h-5 q-168 0 -430 -27q-12 37 -55 291q-53 303 -107 913z" />
<glyph unicode="&#x447;" horiz-adv-x="1132" d="M64 549q109 -135 312 -209q522 -137 442 170q49 80 63 123q107 330 127 737q-141 -4 -321 19q-25 -350 -37 -522l-18 -74q0 -162 -39 -168q-97 35 -166 94q-39 31 -47 57q73 439 127 629q-168 57 -228 76l-104 37l-12 -35q-156 -703 -99 -934zM578 23l9 -51 q170 36 350 -21q129 961 172 1397l-416 39q-100 -1043 -115 -1364z" />
<glyph unicode="&#x448;" horiz-adv-x="1531" d="M-34 1127l8 -131q29 -469 174 -1045q400 70 779 90q348 21 565 -39q35 953 14 1270q-158 -8 -477 -51q41 -240 96 -670l-194 -47l-11 23l-2 49q-10 149 -59 360q-23 -14 -334 -67q35 -101 78 -346l-21 -17h-32q-84 -18 -152 -20q-10 20 -10 47l-10 160q-9 114 -13 444 l-45 -4q-129 -6 -354 -6z" />
<glyph unicode="&#x449;" horiz-adv-x="1685" d="M-18 1186h4q301 0 389 12l4 -6v-6q0 -303 25 -649l8 -21q41 0 150 21h34l21 18q-35 223 -76 358q0 9 76 17q166 33 254 55q4 0 39 -186q22 -166 22 -240q11 -20 11 -22l196 49q-53 440 -96 698q0 2 199 27q225 28 274 28q6 0 8 -249v-156q0 -197 -12 -647h2 q135 -29 162 -29v-2q-23 -102 -23 -238v-22l2 -16q-2 0 -2 -3q-268 74 -385 74q0 6 -158 8q-307 0 -794 -73q-148 -25 -154 -25q-98 408 -141 762q-23 162 -29 278z" />
<glyph unicode="&#x44a;" horiz-adv-x="1103" d="M-22 991q347 32 455 140q20 17 23 17l6 277q-255 -78 -473 -63q20 -188 -11 -371zM96 92q214 -112 453 -100l70 4q75 3 75 12q377 78 365 408q-3 76 -35 202q-131 326 -495 308q-25 -10 -55 -11q-7 0 -21 7q-5 155 16 513q-127 -47 -371 -76q11 -95 13 -137l5 -163 q11 -292 -20 -967zM448 321q12 228 10 300q-1 24 12 25l28 2q202 -27 207 -185v-7q4 -119 -174 -148q-71 5 -83 13z" />
<glyph unicode="&#x44b;" horiz-adv-x="1458" d="M24 87q208 -101 443 -90l67 3q75 4 74 11q369 71 358 372q-3 68 -35 182q-129 298 -484 281q-25 -8 -54 -10q-7 0 -20 6q-6 141 15 467q-127 -36 -362 -70q10 -85 12 -124l5 -148q11 -266 -19 -880zM367 295q12 208 9 274q-1 23 13 23l27 1q197 -24 203 -167l1 -7 q3 -108 -172 -135q-69 5 -81 11zM933 1259q90 -881 162 -1171q23 -53 23 -60l299 67q-63 891 -39 1231z" />
<glyph unicode="&#x44c;" horiz-adv-x="1024" d="M-33 1278q19 -91 24 -132l21 -157q37 -281 69 -938q221 -87 457 -53l68 10q75 10 74 18q367 111 325 430q-10 72 -53 191q-160 304 -519 252q-24 -12 -53 -16q-7 -1 -22 5q-19 149 -31 498q-125 -50 -360 -108zM390 598q-3 23 10 25l27 4q202 -7 223 -159l1 -8 q15 -113 -160 -158q-70 -3 -83 4q-9 221 -18 292z" />
<glyph unicode="&#x44d;" horiz-adv-x="1038" d="M6 455q51 -208 25 -399l-15 -52q60 -32 178 -43l25 -5q176 -19 338 50q379 200 434 614q14 121 0 198q-76 521 -567 578l-19 2q-155 18 -336 -10q144 -249 130 -355v-7q83 21 153 15q57 -8 90 -28q250 -154 215 -427q-20 -82 -51 -127q-92 -124 -258 -107l-334 103h-8z M319 813l72 -272q131 41 502 68l-39 185q-4 0 -29 8q-133 24 -506 11z" />
<glyph unicode="&#x44e;" horiz-adv-x="1797" d="M69 76q16 -64 14 -70l342 10q100 1021 191 1399l-504 20q-67 -1015 -43 -1359zM180 786l30 -307q476 40 634 82q29 14 32 14l-32 206q-481 -20 -664 5zM584 769q-41 -404 244 -735q124 -119 283 -136l37 -4q312 -33 530 358q48 124 59 230l4 39q44 427 -230 727 q-127 103 -242 114l-64 7q-304 33 -542 -324q-65 -150 -79 -276zM945 659l6 57q45 229 181 214q146 -15 222 -315l-2 -84q-18 -175 -223 -201l-15 2q-172 18 -169 327z" />
<glyph unicode="&#x44f;" horiz-adv-x="1222" d="M30 55q283 -39 418 -79q110 531 134 531h112l15 -8q-8 -186 -41 -499q129 31 426 55q-8 70 -16 238q0 261 72 1006q-272 111 -505 111h-95q-108 0 -222 -32q-290 -97 -290 -357q0 -265 189 -412v-15l-54 -87q-139 -325 -143 -444v-8zM440 958v16q26 127 205 127 q86 -8 95 -16q-26 -317 -46 -317h-26q-191 0 -228 190z" />
<glyph unicode="&#x456;" horiz-adv-x="575" d="M6 1274q100 -926 180 -1231q25 -55 25 -61l330 69q-70 936 -43 1292z" />
<glyph unicode="&#x457;" horiz-adv-x="739" d="M6 1567v28q0 72 88 123q49 11 53 11q117 0 135 -109v-10q0 -66 -77 -123q-37 -14 -68 -14q-131 20 -131 94zM74 1277q101 -926 181 -1231q24 -55 24 -61l330 69q-70 936 -43 1292zM102 1489h2q2 0 9.5 2t13.5 4t8 6q-14 -8 -29 -12h-4zM344 1577v29q0 71 88 123 q49 10 53 10q117 0 135 -109v-10q0 -66 -77 -123q-37 -14 -68 -14q-131 20 -131 94zM440 1499h2q2 0 9.5 2t13.5 4t8 6q-14 -8 -29 -12h-4z" />
<glyph unicode="&#x2000;" horiz-adv-x="869" />
<glyph unicode="&#x2001;" horiz-adv-x="1739" />
<glyph unicode="&#x2002;" horiz-adv-x="869" />
<glyph unicode="&#x2003;" horiz-adv-x="1739" />
<glyph unicode="&#x2004;" horiz-adv-x="579" />
<glyph unicode="&#x2005;" horiz-adv-x="434" />
<glyph unicode="&#x2006;" horiz-adv-x="289" />
<glyph unicode="&#x2007;" horiz-adv-x="289" />
<glyph unicode="&#x2008;" horiz-adv-x="217" />
<glyph unicode="&#x2009;" horiz-adv-x="347" />
<glyph unicode="&#x200a;" horiz-adv-x="96" />
<glyph unicode="&#x2010;" horiz-adv-x="675" d="M114 504l33 -230h393l33 230h-459z" />
<glyph unicode="&#x2011;" horiz-adv-x="675" d="M114 504l33 -230h393l33 230h-459z" />
<glyph unicode="&#x2012;" horiz-adv-x="675" d="M114 504l33 -230h393l33 230h-459z" />
<glyph unicode="&#x2013;" horiz-adv-x="1240" d="M114 504l74 -230h876l74 230h-1024z" />
<glyph unicode="&#x2014;" horiz-adv-x="2264" d="M114 504l147 -230h1754l147 230h-2048z" />
<glyph unicode="&#x202f;" horiz-adv-x="347" />
<glyph unicode="&#x205f;" horiz-adv-x="434" />
<glyph unicode="&#x25fc;" horiz-adv-x="1360" d="M0 0v1360h1360v-1360h-1360z" />
</font>
</defs>
</svg>
